HIERARCHY
ROOT Hips
{
	OFFSET 0.000000 0.000000 0.000000
	CHANNELS 6 Xposition Yposition Zposition Zrotation Yrotation Xrotation 
	JOINT LHipJoint
	{
		OFFSET 0.000000 0.000000 0.000000
		CHANNELS 3 Zrotation Yrotation Xrotation
		JOINT LeftUpLeg
		{
			OFFSET 1.363060 -1.794630 0.839290
			CHANNELS 3 Zrotation Yrotation Xrotation
			JOINT LeftLeg
			{
				OFFSET 2.448110 -6.726130 0.000000
				CHANNELS 3 Zrotation Yrotation Xrotation
				JOINT LeftFoot
				{
					OFFSET 2.562200 -7.039590 0.000000
					CHANNELS 3 Zrotation Yrotation Xrotation
					JOINT LeftToeBase
					{
						OFFSET 0.157640 -0.433110 2.322550
						CHANNELS 3 Zrotation Yrotation Xrotation
						End Site
						{
							OFFSET 0.000000 0.000000 0.000000
						}
					}
				}
			}
		}
	}
	JOINT RHipJoint
	{
		OFFSET 0.000000 0.000000 0.000000
		CHANNELS 3 Zrotation Yrotation Xrotation
		JOINT RightUpLeg
		{
			OFFSET -1.305520 -1.794630 0.839290
			CHANNELS 3 Zrotation Yrotation Xrotation
			JOINT RightLeg
			{
				OFFSET -2.542530 -6.985550 0.000000
				CHANNELS 3 Zrotation Yrotation Xrotation
				JOINT RightFoot
				{
					OFFSET -2.568260 -7.056230 0.000000
					CHANNELS 3 Zrotation Yrotation Xrotation
					JOINT RightToeBase
					{
						OFFSET -0.164730 -0.452590 2.363150
						CHANNELS 3 Zrotation Yrotation Xrotation
						End Site
						{
							OFFSET 0.000000 0.000000 0.000000
						}
					}
				}
			}
		}
	}
}
MOTION
Frames: 11
Frame Time: 0.008333
23.726562 15.912128 1.375118 176.707582 -85.997615 -158.608142 -9.269626 -1.113502 4.481737 -9.934780 -5.092674 -61.233763 -0.999579 2.174492 45.701738 1.416507 5.205681 -8.837598 0.136100 0.000000 -18.267200 10.152517 -6.058671 1.288513 4.769761 -4.160716 9.039126 1.388776 -1.795178 18.041373 0.490789 8.985173 15.869576 3.277300 0.000001 -90.375100
23.534134 15.909911 1.389475 174.412959 -85.932581 -156.866467 -9.245536 -1.112484 4.099271 -10.727760 -4.386084 -60.256380 -0.988453 2.215704 46.817120 1.430502 5.269096 -9.459588 0.035800 -0.000000 -18.114100 10.446721 -6.094101 1.116371 3.832246 -4.863105 7.670642 1.078770 -2.122676 21.986621 0.341513 9.888437 18.451066 4.119400 0.000000 -89.725100
23.347552 15.907522 1.405325 171.537911 -85.931294 -154.555300 -9.179569 -1.101380 3.710482 -11.576129 -3.727784 -59.165081 -0.994230 2.229734 47.806419 1.439753 5.280799 -10.199732 -0.081101 -0.000000 -17.971400 10.808733 -6.084169 0.915059 2.795448 -5.724035 6.084352 0.774116 -2.414668 26.211213 0.143788 10.470776 20.779918 4.854901 -0.000000 -87.922400
23.166516 15.905135 1.422573 168.224401 -85.972137 -151.799637 -9.069230 -1.067862 3.330086 -12.455348 -3.131024 -57.989706 -1.014523 2.221225 48.670953 1.446185 5.243606 -11.041734 -0.210700 0.000000 -17.829400 11.222572 -6.020450 0.691598 1.710724 -6.676991 4.312401 0.486858 -2.676499 30.651227 -0.091527 10.477748 22.715601 5.290100 -0.000001 -85.163400
22.990442 15.903246 1.441192 164.655909 -86.029367 -148.770048 -8.918591 -1.001547 2.971820 -13.338422 -2.601736 -56.759640 -1.047419 2.197028 49.411213 1.451922 5.163734 -11.963450 -0.348200 -0.000000 -17.680400 11.666476 -5.897825 0.451776 0.632668 -7.659703 2.387913 0.219256 -2.919820 35.240772 -0.352984 9.703662 24.135560 5.248400 0.000001 -81.754900
22.818462 15.902501 1.461077 160.979019 -86.083873 -145.599384 -8.734897 -0.897476 2.646732 -14.203594 -2.145855 -55.500257 -1.091350 2.163531 50.024547 1.459356 5.052759 -12.937914 -0.488400 -0.000000 -17.518501 12.120635 -5.715511 0.201487 -0.393751 -8.622659 0.336169 -0.033868 -3.157227 39.915454 -0.633459 8.045813 24.934839 4.630500 0.000000 -77.957300
22.650157 15.903773 1.482165 157.310769 -86.123304 -142.396136 -8.528341 -0.756593 2.361935 -15.033719 -1.766951 -54.232262 -1.144839 2.126122 50.506281 1.470577 4.925331 -13.934823 -0.626700 0.000000 -17.340200 12.566808 -5.475890 -0.052566 -1.330859 -9.524308 -1.823690 -0.280564 -3.398476 44.609486 -0.930425 5.527917 25.027969 3.452200 0.000001 -73.942900
22.484700 15.908000 1.504345 153.738787 -86.140873 -139.236444 -8.309767 -0.583809 2.121174 -15.816897 -1.466714 -52.972477 -1.206533 2.088485 50.850173 1.487335 4.797852 -14.923838 -0.760000 0.000000 -17.143600 12.990319 -5.185186 -0.302218 -2.150965 -10.331246 -4.079631 -0.527835 -3.649062 49.255043 -1.242757 2.307330 24.357394 1.855000 0.000000 -69.739200
22.321123 15.916094 1.527514 150.315418 -86.133305 -136.165479 -8.088696 -0.386232 1.924883 -16.547225 -1.244231 -51.732338 -1.275211 2.052517 51.048974 1.510726 4.686126 -15.875756 -0.886201 0.000000 -16.929300 13.380837 -4.852444 -0.538762 -2.837160 -11.018240 -6.424587 -0.780122 -3.910610 53.783789 -1.567065 -1.349890 22.910848 0.078400 0.000000 -65.261100
22.159275 15.928868 1.551555 147.079672 -86.098595 -133.216468 -7.873518 -0.171667 1.771116 -17.222836 -1.095810 -50.519154 -1.349893 2.018771 51.095795 1.541117 4.603113 -16.765398 -1.004800 0.000000 -16.700300 13.730917 -4.488397 -0.753236 -3.382316 -11.566022 -8.854491 -1.038972 -4.180885 58.127353 -1.895188 -5.119890 20.738461 -1.599100 0.000000 -60.390900
21.998373 15.947011 1.576460 144.066628 -86.034131 -130.419028 -7.672113 0.051747 1.654846 -17.843782 -1.014301 -49.336785 -1.430137 1.987216 50.984277 1.577917 4.556682 -17.572270 -1.115700 -0.000000 -16.461500 14.034174 -4.102725 -0.938568 -3.786293 -11.960058 -11.366733 -1.302947 -4.454311 62.221411 -2.213535 -8.683122 17.956507 -2.931300 0.000001 -55.048500
